<svg xmlns="http://www.w3.org/2000/svg" viewBox="0 0 304.9 114.6" height="433.1" width="1152.3"><text word-spacing="0" letter-spacing="0" font-size="15.8" font-weight="700" y="66.2" x="52.6" style="line-height:1.25;-inkscape-font-specification:'sans-serif Bold'" font-family="sans-serif" fill="#363636" stroke-width=".4"><tspan style="-inkscape-font-specification:'sans-serif Bold'" y="66.2" x="52.6">A(</tspan></text><text word-spacing="0" letter-spacing="0" font-size="15.8" font-weight="700" style="line-height:1.25;-inkscape-font-specification:'sans-serif Bold'" x="131.4" y="66.2" font-family="sans-serif" fill="#363636" stroke-width=".4"><tspan x="131.4" y="66.2" style="-inkscape-font-specification:'sans-serif Bold'">)</tspan></text><path d="M78.5 56.1h11V67h-11z" fill="#a17ca1"/><g transform="translate(-12 -878.6) scale(1.36167)" fill="#a17ca1"><circle r=".7" cy="693.7" cx="76.4"/><circle cx="78.2" cy="693.7" r=".7"/><circle cx="80" cy="693.7" r=".7"/></g><path d="M108.8 56.1h11V67h-11z" fill="#a17ca1"/><text word-spacing="0" letter-spacing="0" font-size="15.9" font-weight="400" style="line-height:1.25;-inkscape-font-specification:sans-serif" x="71.7" y="66" font-family="sans-serif" fill="#466160" stroke-width=".4"><tspan x="71.7" y="66" style="-inkscape-font-specification:sans-serif">[</tspan></text><text word-spacing="0" letter-spacing="0" font-size="15.9" font-weight="400" y="66" x="-104.5" style="line-height:1.25;-inkscape-font-specification:sans-serif" transform="scale(-1 1)" font-family="sans-serif" fill="#466160" stroke-width=".4"><tspan style="-inkscape-font-specification:sans-serif" y="66" x="-104.5">[</tspan></text><text word-spacing="0" letter-spacing="0" font-size="7.1" font-weight="700" y="64.1" x="81.5" style="line-height:1.25;-inkscape-font-specification:'sans-serif Bold'" font-family="sans-serif" fill="#fff" stroke-width=".2"><tspan style="-inkscape-font-specification:'sans-serif Bold'" y="64.1" x="81.5">0</tspan></text><text word-spacing="0" letter-spacing="0" font-size="7.1" font-weight="700" style="line-height:1.25;-inkscape-font-specification:'sans-serif Bold'" x="111.9" y="64.1" font-family="sans-serif" fill="#fff" stroke-width=".2"><tspan x="111.9" y="64.1" style="-inkscape-font-specification:'sans-serif Bold'">1</tspan></text><g transform="translate(20 -878.1) scale(1.36167)" fill="#a17ca1"><circle cx="76.4" cy="693.7" r=".7"/><circle r=".7" cy="693.7" cx="78.2"/><circle r=".7" cy="693.7" cx="80"/></g><rect rx="0" ry="0" y="25.1" x="176.2" height="16.8" width="4.6" fill="#2f5e5d"/><rect width="4.6" height="16.8" x="182.5" y="25.1" ry="0" rx="0" fill="#2f5e5d"/><rect width="4.6" height="16.8" x="194.5" y="25.1" ry="0" rx="0" fill="#2f5e5d"/><rect width="10.6" height="16.8" x="207.9" y="25.1" ry="0" rx="0" fill="#e5650e"/><rect width="4.6" height="16.8" x="227.3" y="25.1" ry="0" rx="0" fill="#2f5e5d"/><path d="M176.2 39.5h55.7v2.9h-55.7z" fill="#2f5e5d"/><rect width="4.6" height="16.8" x="176.2" y="51.3" ry="0" rx="0" fill="#2f5e5d"/><rect rx="0" ry="0" y="51.3" x="182.5" height="16.8" width="4.6" fill="#2f5e5d"/><rect rx="0" ry="0" y="51.3" x="194.5" height="16.8" width="4.6" fill="#e5650e"/><rect rx="0" ry="0" y="51.3" x="207.9" height="16.8" width="10.6" fill="#2f5e5d"/><rect rx="0" ry="0" y="51.3" x="227.3" height="16.8" width="4.6" fill="#2f5e5d"/><path d="M176.2 65.8h55.7v2.8h-55.7z" fill="#2f5e5d"/><rect width="4.6" height="15.5" x="176.2" y="98.6" ry="0" rx="0" fill="#2f5e5d"/><rect rx="0" ry="0" y="98.6" x="182.5" height="15.5" width="4.6" fill="#e5650e"/><rect rx="0" ry="0" y="98.6" x="194.5" height="15.5" width="4.6" fill="#2f5e5d"/><rect rx="0" ry="0" y="98.6" x="207.9" height="15.5" width="10.6" fill="#2f5e5d"/><rect rx="0" ry="0" y="98.6" x="227.3" height="15.5" width="4.6" fill="#2f5e5d"/><path d="M176.2 112h55.7v2.6h-55.7z" fill="#2f5e5d"/><g fill="#a17ca1"><path d="M74.1 21.8v-6.9h1.7v6.9zm58.8 0v-6.9h1.7v6.9z"/><path d="M75.8 16.6v-1.7h57.6v1.7z"/><path d="M104.1 15.5v-4.8h1.7v4.8z"/></g><text word-spacing="0" letter-spacing="0" font-size="8.5" font-weight="700" style="line-height:1.25;-inkscape-font-specification:'Ubuntu Condensed, Bold'" x="73.4" y="6.4" font-family="Ubuntu Condensed" fill="#363636" stroke-width=".2"><tspan x="73.4" y="6.4" style="-inkscape-font-specification:'sans-serif Bold'" font-family="sans-serif">training data</tspan></text><path d="M72.8 74.8H136v4.3H72.8zm0 7.4H136v4.3H72.8zm0 7.5H136v4.2H72.8z" fill="#a17ca1"/><text word-spacing="0" letter-spacing="0" font-size="15.8" font-weight="700" style="line-height:1.25;-inkscape-font-specification:'sans-serif Bold'" x="52.6" y="38.5" font-family="sans-serif" fill="#363636" stroke-width=".4"><tspan x="52.6" y="38.5" style="-inkscape-font-specification:'sans-serif Bold'">A(</tspan></text><text word-spacing="0" letter-spacing="0" font-size="15.8" font-weight="700" y="38.5" x="131.4" style="line-height:1.25;-inkscape-font-specification:'sans-serif Bold'" font-family="sans-serif" fill="#363636" stroke-width=".4"><tspan style="-inkscape-font-specification:'sans-serif Bold'" y="38.5" x="131.4">)</tspan></text><path d="M78.5 28.5h11v10.8h-11z" fill="#a17ca1"/><g transform="translate(-12 -906.2) scale(1.36167)" fill="#a17ca1"><circle cx="76.4" cy="693.7" r=".7"/><circle r=".7" cy="693.7" cx="78.2"/><circle r=".7" cy="693.7" cx="80"/></g><path d="M108.8 28.5h11v10.8h-11z" fill="#a17ca1"/><text word-spacing="0" letter-spacing="0" font-size="15.9" font-weight="400" y="38.4" x="71.7" style="line-height:1.25;-inkscape-font-specification:sans-serif" font-family="sans-serif" fill="#466160" stroke-width=".4"><tspan style="-inkscape-font-specification:sans-serif" y="38.4" x="71.7">[</tspan></text><text word-spacing="0" letter-spacing="0" font-size="15.9" font-weight="400" transform="scale(-1 1)" style="line-height:1.25;-inkscape-font-specification:sans-serif" x="-104.5" y="38.4" font-family="sans-serif" fill="#466160" stroke-width=".4"><tspan x="-104.5" y="38.4" style="-inkscape-font-specification:sans-serif">[</tspan></text><text word-spacing="0" letter-spacing="0" font-size="7.1" font-weight="700" style="line-height:1.25;-inkscape-font-specification:'sans-serif Bold'" x="81.5" y="36.5" font-family="sans-serif" fill="#fff" stroke-width=".2"><tspan x="81.5" y="36.5" style="-inkscape-font-specification:'sans-serif Bold'">0</tspan></text><text word-spacing="0" letter-spacing="0" font-size="7.1" font-weight="700" y="36.5" x="111.9" style="line-height:1.25;-inkscape-font-specification:'sans-serif Bold'" font-family="sans-serif" fill="#fff" stroke-width=".2"><tspan style="-inkscape-font-specification:'sans-serif Bold'" y="36.5" x="111.9">0</tspan></text><g transform="translate(20 -905.8) scale(1.36167)" fill="#a17ca1"><circle r=".7" cy="693.7" cx="76.4"/><circle cx="78.2" cy="693.7" r=".7"/><circle cx="80" cy="693.7" r=".7"/></g><text word-spacing="0" letter-spacing="0" font-size="15.8" font-weight="700" y="110.5" x="52.6" style="line-height:1.25;-inkscape-font-specification:'sans-serif Bold'" font-family="sans-serif" fill="#363636" stroke-width=".4"><tspan style="-inkscape-font-specification:'sans-serif Bold'" y="110.5" x="52.6">A(</tspan></text><text word-spacing="0" letter-spacing="0" font-size="15.8" font-weight="700" style="line-height:1.25;-inkscape-font-specification:'sans-serif Bold'" x="131.4" y="110.5" font-family="sans-serif" fill="#363636" stroke-width=".4"><tspan x="131.4" y="110.5" style="-inkscape-font-specification:'sans-serif Bold'">)</tspan></text><path d="M78.5 100.5h11v10.8h-11z" fill="#a17ca1"/><g transform="translate(-12 -834.2) scale(1.36167)" fill="#a17ca1"><circle r=".7" cy="693.7" cx="76.4"/><circle cx="78.2" cy="693.7" r=".7"/><circle cx="80" cy="693.7" r=".7"/></g><path d="M108.8 100.5h11v10.8h-11z" fill="#a17ca1"/><text word-spacing="0" letter-spacing="0" font-size="15.9" font-weight="400" style="line-height:1.25;-inkscape-font-specification:sans-serif" x="71.7" y="110.4" font-family="sans-serif" fill="#466160" stroke-width=".4"><tspan x="71.7" y="110.4" style="-inkscape-font-specification:sans-serif">[</tspan></text><text word-spacing="0" letter-spacing="0" font-size="15.9" font-weight="400" y="110.4" x="-104.5" style="line-height:1.25;-inkscape-font-specification:sans-serif" transform="scale(-1 1)" font-family="sans-serif" fill="#466160" stroke-width=".4"><tspan style="-inkscape-font-specification:sans-serif" y="110.4" x="-104.5">[</tspan></text><text word-spacing="0" letter-spacing="0" font-size="7.1" font-weight="700" y="108.4" x="81.5" style="line-height:1.25;-inkscape-font-specification:'sans-serif Bold'" font-family="sans-serif" fill="#fff" stroke-width=".2"><tspan style="-inkscape-font-specification:'sans-serif Bold'" y="108.4" x="81.5">1</tspan></text><text word-spacing="0" letter-spacing="0" font-size="7.1" font-weight="700" style="line-height:1.25;-inkscape-font-specification:'sans-serif Bold'" x="111.9" y="108.4" font-family="sans-serif" fill="#fff" stroke-width=".2"><tspan x="111.9" y="108.4" style="-inkscape-font-specification:'sans-serif Bold'">0</tspan></text><g transform="translate(20 -833.8) scale(1.36167)" fill="#a17ca1"><circle cx="76.4" cy="693.7" r=".7"/><circle r=".7" cy="693.7" cx="78.2"/><circle r=".7" cy="693.7" cx="80"/></g><g fill="#363636"><path d="M170 32v3.2h-6.2V32z"/><path d="M168.5 29.6v8l2.2-2 2.2-2-2.2-2z"/></g><g fill="#363636"><path d="M170 59.5v3.2h-6.2v-3.2z"/><path d="M168.5 57v8.1l2.2-2 2.2-2-2.2-2z"/></g><g fill="#363636"><path d="M170 103.9v3.1h-6.2v-3.1z"/><path d="M168.5 101.4v8l2.2-2 2.2-2-2.2-2z"/></g><g fill="#363636"><path d="M240.6 42.9H251V46h-10.3zm0 55.3H251v3.3h-10.3z"/><path d="M247.7 46.1h3.2v52.1h-3.2z"/><path d="M247.9 69H260v3.3H248z"/></g><path d="M176.1 74.8h56.4v4.3h-56.4zm0 7.4h56.4v4.3h-56.4zm0 7.5h56.4v4.2h-56.4z" fill="#2f5e5d"/><path d="M176.1 74.8h14v4.3h-14zm17.5 7.4h5v4.3h-5zm20.7 0h5v4.3h-5zm.2 7.5h14v4.2h-14z" fill="#e5650e"/><path d="M47.2 35h-11v3.9h11zm0 66.6h-11v4h11zm-7-62.7h-4v62.7h4z" fill="#4e9d9b"/><path d="M26.1 66.5v4h11.3v-4zM44 31.7v10.1l4-2.5 4-2.6-4-2.5zm1.7 66.7v10l4-2.5 4-2.5-4-2.5z" fill="#4e9d9b"/><rect width="22.7" height="22.7" x=".1" y="56.8" ry="0" fill="#2f5e5d"/><text y="74.1" x="1.4" style="line-height:1.25;-inkscape-font-specification:'Ubuntu Condensed, Bold'" font-weight="700" font-size="19.3" letter-spacing="0" word-spacing="0" font-family="Ubuntu Condensed" fill="#fff" stroke-width=".5"><tspan style="-inkscape-font-specification:'sans-serif Bold'" y="74.1" x="1.4" font-family="sans-serif">D</tspan></text><text style="line-height:1.25;-inkscape-font-specification:'sans-serif Bold'" x="16.2" y="77.3" font-weight="700" font-size="7.8" letter-spacing="0" word-spacing="0" font-family="sans-serif" fill="#fff" stroke-width=".2"><tspan x="16.2" y="77.3" style="-inkscape-font-specification:'sans-serif Bold'">?</tspan></text><text word-spacing="0" letter-spacing="0" font-size="8.5" font-weight="700" y="6.7" x="193.4" style="line-height:1.25;-inkscape-font-specification:'Ubuntu Condensed, Bold'" font-family="Ubuntu Condensed" fill="#e5650e" stroke-width=".3"><tspan style="-inkscape-font-specification:'sans-serif Bold'" y="6.7" x="193.4" font-family="sans-serif">error</tspan></text><g fill="#2f5e5d"><path d="M176.1 22.3v-6.8h1.6v6.8zm54.3 0v-6.8h1.6v6.8z"/><path d="M177.7 17v-1.6h53.1v1.7z"/><path d="M203.8 16v-4.7h1.6V16z"/></g><g transform="translate(-60 -712.1)"><text word-spacing="0" letter-spacing="0" font-size="15.8" font-weight="700" style="line-height:1.25;-inkscape-font-specification:'sans-serif Bold'" x="314" y="812.1" font-family="sans-serif" fill="#363636" stroke-width=".4"><tspan x="314" y="812.1" style="-inkscape-font-specification:'sans-serif Bold'">≥</tspan></text><text word-spacing="0" letter-spacing="0" font-size="15.8" font-weight="700" y="813.3" x="328.9" style="line-height:1.25;-inkscape-font-specification:'sans-serif Bold'" font-family="sans-serif" fill="#e5650e" stroke-width=".4"><tspan style="-inkscape-font-specification:'sans-serif Bold'" y="813.3" x="328.9">1</tspan></text><text word-spacing="0" letter-spacing="0" font-size="15.8" font-weight="700" style="line-height:1.25;-inkscape-font-specification:'sans-serif Bold'" x="340" y="813.6" font-family="sans-serif" fill="#2f5e5d" stroke-width=".4"><tspan x="340" y="813.6" style="-inkscape-font-specification:'sans-serif Bold'">/4</tspan></text><circle r="17.6" cy="775.6" cx="341" fill="#2f5e5d"/><path d="M323.4 775.7a17.6 17.6 0 005.1 12.4l12.5-12.4z" fill="#e5650e"/><path d="M328.4 788a17.6 17.6 0 0012.5 5.2v-17.6z" fill="#e5650e"/></g><path d="M149 27.1h13v13h-13z" fill="#99039e"/><text word-spacing="0" letter-spacing="0" font-size="9.1" font-weight="700" y="37" x="152.3" style="line-height:1.25;-inkscape-font-specification:'sans-serif Bold'" font-family="sans-serif" fill="#fff" stroke-width=".2"><tspan style="-inkscape-font-specification:'sans-serif Bold'" y="37" x="152.3">h</tspan></text><path d="M149 54.6h13v13h-13z" fill="#99039e"/><text word-spacing="0" letter-spacing="0" font-size="9.1" font-weight="700" style="line-height:1.25;-inkscape-font-specification:'sans-serif Bold'" x="152.3" y="64.5" font-family="sans-serif" fill="#fff" stroke-width=".2"><tspan x="152.3" y="64.5" style="-inkscape-font-specification:'sans-serif Bold'">h</tspan></text><path d="M149 99h13v12.9h-13z" fill="#99039e"/><text word-spacing="0" letter-spacing="0" font-size="9.1" font-weight="700" style="line-height:1.25;-inkscape-font-specification:'sans-serif Bold'" x="152.3" y="108.9" font-family="sans-serif" fill="#fff" stroke-width=".2"><tspan x="152.3" y="108.9" style="-inkscape-font-specification:'sans-serif Bold'">h</tspan></text><g fill="#363636"><path d="M144.9 31.9V35h-6.2V32z"/><path d="M143.4 29.4v8.1l2.2-2 2.2-2-2.2-2z"/></g><g fill="#363636"><path d="M144.9 59.4v3.1h-6.2v-3.1z"/><path d="M143.4 57v8l2.2-2 2.2-2-2.2-2z"/></g><g fill="#363636"><path d="M144.9 103.7v3.2h-6.2v-3.2z"/><path d="M143.4 101.3v8l2.2-2 2.2-2-2.2-2z"/></g><text style="line-height:1.25;-inkscape-font-specification:'Ubuntu Condensed, Bold'" x="257.8" y="43.2" font-weight="700" font-size="8.5" letter-spacing="0" word-spacing="0" font-family="Ubuntu Condensed" fill="#e5650e" stroke-width=".3"><tspan x="257.8" y="43.2" style="-inkscape-font-specification:'sans-serif Bold'" font-family="sans-serif" stroke-width="1.2">max error</tspan></text><path d="M148.8 74.8h13.5v4.3h-13.5zm0 7.4h13.5v4.3h-13.5zm0 7.5h13.5v4.2h-13.5z" fill="#99039e"/><text y="54.8" x="-.9" style="line-height:1.25;-inkscape-font-specification:'Ubuntu Condensed, Bold'" font-weight="700" font-size="10.2" letter-spacing="0" word-spacing="0" font-family="Ubuntu Condensed" fill="#2f5e5d" stroke-width=".5"><tspan style="-inkscape-font-specification:'sans-serif Bold'" y="54.8" x="-.9" font-family="sans-serif" stroke-width="2.5">Loss</tspan></text><text word-spacing="0" letter-spacing="0" font-size="10.2" font-weight="700" style="line-height:1.25;-inkscape-font-specification:'Ubuntu Condensed, Bold'" x="-.8" y="87.4" font-family="Ubuntu Condensed" fill="#2f5e5d" stroke-width=".5"><tspan x="-.8" y="87.4" style="-inkscape-font-specification:'sans-serif Bold'" font-family="sans-serif" stroke-width="2.5">max</tspan></text></svg>